<?xml version="1.0" encoding="utf-8"?>
<!-- Generator: Adobe Illustrator 24.0.2, SVG Export Plug-In . SVG Version: 6.00 Build 0)  -->
<svg version="1.1" id="Layer_1" xmlns="http://www.w3.org/2000/svg" xmlns:xlink="http://www.w3.org/1999/xlink" x="0px" y="0px"
	 viewBox="0 0 138.7 16.7" style="enable-background:new 0 0 138.7 16.7;" xml:space="preserve">
<style type="text/css">
	.st0{enable-background:new    ;}
	.st1{fill:#2F2F41;}
	.st2{fill:#FDB73E;}
</style>
<title>logo</title>
<g class="st0">
	<path class="st1" d="M11.9,1.7c-0.1,0.5-0.1,1-0.1,1.5s0,0.8,0,1.1s0,0.6,0,0.9s0,0.5,0,0.7h-0.5c0-0.9-0.1-1.6-0.3-2.1
		s-0.4-0.9-0.8-1.2c-0.4-0.2-1-0.4-1.9-0.4H7.2v11.5c0,0.5,0.1,0.9,0.2,1.2s0.3,0.4,0.6,0.5s0.7,0.2,1.3,0.2V16C9,16,8.5,16,8,15.9
		c-0.5,0-1.1,0-1.6,0c-0.6,0-1.2,0-1.7,0s-1,0-1.3,0.1v-0.4c0.6,0,1-0.1,1.3-0.2c0.3-0.1,0.5-0.3,0.6-0.5s0.2-0.7,0.2-1.2V2.2H4.2
		c-0.8,0-1.5,0.1-1.9,0.4C2,2.8,1.7,3.2,1.5,3.8C1.3,4.3,1.2,5,1.1,6H0.7c0-0.2,0-0.5,0.1-0.7c0-0.3,0-0.6,0-0.9s0-0.6,0-1.1
		s-0.1-1-0.1-1.5c0.6,0,1.2,0,1.8,0c0.7,0,1.3,0,2,0s1.3,0,1.8,0s1.2,0,1.8,0c0.7,0,1.3,0,2,0C10.8,1.8,11.4,1.8,11.9,1.7z"/>
	<path class="st1" d="M16.1,0.2v7.5c0.3-0.9,0.8-1.5,1.5-1.9s1.3-0.5,2-0.5c0.5,0,0.9,0.1,1.3,0.2c0.3,0.1,0.6,0.3,0.9,0.6
		c0.3,0.3,0.4,0.6,0.5,1s0.2,0.9,0.2,1.6v5.4c0,0.6,0.1,0.9,0.4,1.1s0.6,0.3,1.2,0.3V16c-0.2,0-0.6,0-1-0.1c-0.5,0-0.9,0-1.4,0
		s-0.9,0-1.3,0s-0.7,0-1,0.1v-0.4c0.5,0,0.8-0.1,1-0.3s0.3-0.6,0.3-1.1V8.3c0-0.4,0-0.8-0.1-1.1c-0.1-0.3-0.2-0.6-0.5-0.8
		C19.8,6.1,19.4,6,18.9,6c-0.8,0-1.5,0.3-2,1s-0.8,1.6-0.8,2.6v4.5c0,0.6,0.1,0.9,0.3,1.1s0.5,0.3,1,0.3V16c-0.2,0-0.5,0-1-0.1
		c-0.4,0-0.9,0-1.3,0c-0.4,0-0.9,0-1.4,0s-0.8,0-1,0.1v-0.4c0.5,0,0.9-0.1,1.2-0.3s0.4-0.6,0.4-1.1V2.7c0-0.6-0.1-1-0.3-1.3
		S13.4,1,12.8,1V0.5c0.4,0,0.8,0.1,1.2,0.1s0.8,0,1.1-0.1S15.8,0.3,16.1,0.2z"/>
	<path class="st1" d="M29.7,5.4c0.9,0,1.6,0.2,2.3,0.6c0.7,0.4,1.2,1,1.6,1.8s0.6,1.9,0.6,3.1c0,1.3-0.2,2.3-0.6,3.1s-1,1.4-1.6,1.8
		c-0.7,0.4-1.5,0.6-2.3,0.6s-1.6-0.2-2.3-0.6c-0.7-0.4-1.2-1-1.7-1.8c-0.4-0.8-0.6-1.8-0.6-3.1s0.2-2.3,0.6-3.1s1-1.4,1.7-1.8
		C28.1,5.5,28.9,5.4,29.7,5.4z M29.7,5.8c-0.8,0-1.4,0.4-1.9,1.2s-0.7,2.1-0.7,3.9s0.2,3.1,0.7,3.9c0.5,0.8,1.1,1.2,1.9,1.2
		s1.4-0.4,1.9-1.2c0.5-0.8,0.7-2.1,0.7-3.9S32.1,7.8,31.6,7S30.5,5.8,29.7,5.8z"/>
	<path class="st1" d="M42.5,5.4c0.5,0,0.9,0.1,1.2,0.2s0.6,0.3,0.9,0.6c0.3,0.3,0.4,0.6,0.5,1s0.1,1,0.1,1.6v5.4
		c0,0.6,0.1,0.9,0.4,1.1s0.6,0.3,1.2,0.3V16c-0.2,0-0.6,0-1-0.1c-0.5,0-0.9,0-1.4,0s-0.9,0-1.3,0c-0.4,0-0.7,0-1,0.1v-0.4
		c0.5,0,0.8-0.1,1-0.3s0.3-0.6,0.3-1.1V8.3c0-0.4,0-0.8-0.1-1.1c-0.1-0.3-0.2-0.6-0.4-0.8c-0.2-0.2-0.6-0.3-1-0.3
		c-0.5,0-1,0.2-1.4,0.5s-0.7,0.8-1,1.3c-0.2,0.6-0.4,1.2-0.4,1.9v4.5c0,0.6,0.1,0.9,0.3,1.1c0.2,0.2,0.5,0.3,1,0.3V16
		c-0.2,0-0.5,0-1-0.1c-0.4,0-0.9,0-1.3,0c-0.4,0-0.9,0-1.4,0s-0.8,0-1,0.1v-0.4c0.5,0,0.9-0.1,1.2-0.3s0.4-0.6,0.4-1.1V7.8
		c0-0.6-0.1-1.1-0.3-1.3c-0.2-0.3-0.6-0.4-1.2-0.4V5.6c0.4,0,0.8,0.1,1.2,0.1s0.8,0,1.1-0.1c0.4,0,0.7-0.1,1-0.2v2.4
		c0.3-0.9,0.8-1.5,1.4-1.9C41.2,5.5,41.8,5.4,42.5,5.4z M48.5,5.4c0.5,0,0.9,0.1,1.2,0.2s0.6,0.3,0.9,0.6c0.3,0.3,0.4,0.6,0.5,1
		s0.1,1,0.1,1.6v5.4c0,0.6,0.1,0.9,0.4,1.1c0.2,0.2,0.6,0.3,1.2,0.3V16c-0.2,0-0.6,0-1-0.1c-0.5,0-0.9,0-1.4,0c-0.4,0-0.9,0-1.3,0
		c-0.4,0-0.7,0-1,0.1v-0.4c0.5,0,0.8-0.1,1-0.3s0.3-0.6,0.3-1.1V8.3c0-0.4,0-0.8-0.1-1.1c-0.1-0.3-0.2-0.6-0.4-0.8
		c-0.2-0.2-0.6-0.3-1-0.3c-0.8,0-1.4,0.3-1.9,1s-0.8,1.6-0.8,2.6l-0.1-1.9c0.4-0.9,0.9-1.6,1.5-1.9S47.9,5.4,48.5,5.4z"/>
	<path class="st1" d="M56.4,16.1c-0.9,0-1.5-0.2-1.9-0.7c-0.4-0.4-0.6-1-0.6-1.7c0-0.6,0.1-1,0.4-1.4c0.3-0.4,0.6-0.7,1.1-0.9
		c0.4-0.2,0.9-0.4,1.4-0.6c0.5-0.2,0.9-0.3,1.4-0.5c0.4-0.2,0.8-0.3,1.1-0.5s0.4-0.5,0.4-0.8V7.8c0-0.6-0.1-1-0.3-1.3S59,6,58.7,5.9
		s-0.6-0.2-0.9-0.2c-0.3,0-0.7,0-1.1,0.1c-0.4,0.1-0.7,0.3-0.9,0.6c0.3,0.1,0.5,0.2,0.7,0.4c0.2,0.2,0.3,0.5,0.3,0.8
		s-0.1,0.6-0.3,0.8S56,8.7,55.7,8.7c-0.4,0-0.7-0.1-0.9-0.4c-0.2-0.2-0.3-0.5-0.3-0.8s0.1-0.6,0.3-0.8c0.2-0.2,0.4-0.4,0.7-0.6
		s0.7-0.4,1.2-0.6s1-0.2,1.7-0.2c0.6,0,1,0.1,1.4,0.2s0.7,0.3,1,0.6c0.3,0.3,0.6,0.7,0.7,1.2s0.2,1,0.2,1.7v5.6c0,0.3,0,0.6,0.1,0.7
		c0.1,0.2,0.3,0.2,0.5,0.2s0.4,0,0.5-0.1s0.3-0.2,0.4-0.3l0.2,0.3c-0.3,0.2-0.6,0.4-0.8,0.5c-0.3,0.1-0.6,0.2-1,0.2
		c-0.7,0-1.2-0.2-1.4-0.5c-0.2-0.4-0.3-0.8-0.3-1.2c-0.4,0.7-0.9,1.2-1.5,1.4C57.6,16,57,16.1,56.4,16.1z M57.3,15.3
		c0.4,0,0.8-0.1,1.2-0.4c0.4-0.2,0.8-0.6,1.1-1.2V9.9c-0.2,0.3-0.5,0.5-0.9,0.7s-0.9,0.4-1.3,0.6s-0.8,0.5-1.2,0.8s-0.5,0.9-0.5,1.5
		s0.2,1.1,0.5,1.4C56.4,15.2,56.8,15.3,57.3,15.3z"/>
	<path class="st1" d="M67.3,5.4c0.5,0,1,0.1,1.4,0.3c0.4,0.2,0.7,0.3,0.8,0.5c0.4,0.4,0.7,0.1,0.8-0.7h0.5c0,0.4,0,0.8-0.1,1.3
		c0,0.5,0,1.2,0,2.1h-0.5c-0.1-0.5-0.2-1-0.4-1.4c-0.2-0.5-0.5-0.9-0.9-1.2S68,5.8,67.4,5.8c-0.5,0-0.9,0.1-1.2,0.4
		s-0.5,0.6-0.5,1.2c0,0.4,0.1,0.7,0.4,1C66.3,8.7,66.7,9,67,9.2c0.4,0.2,0.8,0.5,1.3,0.8c0.8,0.5,1.4,1,2,1.5c0.5,0.5,0.8,1.2,0.8,2
		c0,0.6-0.2,1.1-0.5,1.5s-0.7,0.7-1.3,0.9c-0.5,0.2-1.1,0.3-1.7,0.3c-0.3,0-0.6,0-0.8-0.1S66.3,16,66,15.9c-0.1-0.1-0.3-0.1-0.4-0.2
		c-0.1-0.1-0.3-0.2-0.4-0.3s-0.3-0.1-0.4,0s-0.2,0.3-0.2,0.7h-0.5c0-0.4,0-1,0.1-1.6s0-1.4,0-2.5h0.5c0.1,0.8,0.2,1.4,0.4,2
		s0.4,1,0.8,1.3s0.9,0.5,1.6,0.5c0.4,0,0.8-0.1,1.2-0.4c0.4-0.3,0.6-0.8,0.6-1.5c0-0.6-0.2-1.1-0.6-1.4c-0.4-0.4-1-0.8-1.6-1.2
		c-0.5-0.3-0.9-0.6-1.4-0.9c-0.4-0.3-0.8-0.7-1-1S64.3,8.5,64.3,8c0-0.6,0.1-1.1,0.4-1.5s0.6-0.7,1.1-0.8S66.8,5.4,67.3,5.4z"/>
</g>
<g class="st0">
	<path class="st2" d="M79.2,1.7v0.4c-0.4,0-0.8,0.1-1,0.2c-0.2,0.1-0.3,0.2-0.4,0.5c-0.1,0.3-0.1,0.6-0.1,1.1v10
		c0,0.5,0,0.8,0.1,1.1c0.1,0.2,0.2,0.4,0.4,0.5c0.2,0.1,0.5,0.1,1,0.2V16c-0.4,0-0.8,0-1.4-0.1c-0.5,0-1.1,0-1.7,0s-1.3,0-1.8,0
		c-0.6,0-1,0-1.4,0.1v-0.4c0.4,0,0.8-0.1,1-0.2c0.2-0.1,0.4-0.2,0.4-0.5c0.1-0.2,0.1-0.6,0.1-1.1v-10c0-0.5,0-0.9-0.1-1.1
		c-0.1-0.2-0.2-0.4-0.4-0.5c-0.2-0.1-0.5-0.1-1-0.2V1.7c0.3,0,0.8,0,1.4,0s1.2,0,1.8,0c0.6,0,1.1,0,1.7,0
		C78.4,1.7,78.8,1.7,79.2,1.7z M86.1,1.7v0.4c-0.4,0.1-0.9,0.3-1.4,0.6s-1,0.7-1.5,1.4l-3.8,4.5l1.2-1.7l4.8,7.5
		c0.2,0.3,0.4,0.6,0.6,0.7c0.2,0.2,0.5,0.3,0.8,0.5V16c-0.5,0-1,0-1.6-0.1c-0.6,0-1.1,0-1.6,0c-0.3,0-0.6,0-1,0s-0.9,0-1.5,0.1v-0.4
		c0.5,0,0.9-0.1,1-0.2c0.1-0.1,0.1-0.4-0.2-0.7L79.1,10c-0.2-0.3-0.4-0.5-0.5-0.7S78.3,9,78.2,9c-0.1-0.1-0.3-0.1-0.6-0.1V8.4
		c0.6,0,1.1-0.2,1.6-0.5s1-0.8,1.5-1.4l1.2-1.4c0.5-0.6,0.8-1.1,0.9-1.6s0-0.8-0.3-1s-0.7-0.4-1.2-0.4V1.7c0.5,0,1,0,1.4,0
		s1,0,1.6,0C85.1,1.7,85.7,1.7,86.1,1.7z"/>
	<path class="st2" d="M91.3,5.4v8.8c0,0.6,0.1,0.9,0.3,1.1s0.5,0.3,1,0.3V16c-0.2,0-0.6,0-1.1-0.1c-0.5,0-1,0-1.5,0s-1.1,0-1.6,0
		s-0.9,0-1.2,0.1v-0.4c0.5,0,0.8-0.1,1-0.3s0.3-0.6,0.3-1.1V7.8c0-0.6-0.1-1-0.3-1.3C88,6.2,87.6,6,87.1,6V5.6
		c0.4,0,0.8,0.1,1.2,0.1c0.6,0,1.1,0,1.6-0.1C90.4,5.5,90.9,5.5,91.3,5.4z M89.7,0.4c0.6,0,1,0.1,1.3,0.4s0.5,0.7,0.5,1.1
		c0,0.5-0.2,0.9-0.5,1.1c-0.3,0.3-0.8,0.4-1.3,0.4s-1-0.1-1.3-0.4s-0.5-0.7-0.5-1.1c0-0.5,0.2-0.9,0.5-1.1
		C88.7,0.5,89.2,0.4,89.7,0.4z"/>
	<path class="st2" d="M100.8,5.3c0.6,0,1,0.1,1.4,0.2c0.3,0.1,0.6,0.3,0.8,0.6c0.2,0.3,0.4,0.6,0.5,1s0.1,0.9,0.1,1.6v5.4
		c0,0.6,0.1,0.9,0.3,1.1c0.2,0.2,0.5,0.3,0.9,0.3V16c-0.2,0-0.6,0-1.1-0.1c-0.5,0-1,0-1.4,0c-0.5,0-1,0-1.4,0c-0.5,0-0.8,0-1.1,0.1
		v-0.4c0.4,0,0.6-0.1,0.8-0.3s0.2-0.6,0.2-1.1V7.9c0-0.3,0-0.6-0.1-0.9c-0.1-0.2-0.2-0.4-0.3-0.6c-0.2-0.1-0.4-0.2-0.7-0.2
		c-0.3,0-0.7,0.1-1,0.3C98.4,6.7,98.2,7,98,7.3c-0.2,0.4-0.3,0.8-0.3,1.2v5.6c0,0.6,0.1,0.9,0.2,1.1c0.1,0.2,0.4,0.3,0.7,0.3V16
		c-0.2,0-0.5,0-1-0.1c-0.4,0-0.9,0-1.4,0s-1,0-1.6,0c-0.5,0-0.9,0-1.2,0.1v-0.4c0.5,0,0.8-0.1,1-0.3s0.3-0.6,0.3-1.1V7.8
		c0-0.6-0.1-1-0.3-1.3C94.3,6.2,94,6,93.5,6V5.6c0.4,0,0.8,0.1,1.2,0.1c0.6,0,1.1,0,1.6-0.1c0.5,0,0.9-0.1,1.4-0.2v1.8
		C98,6.5,98.4,6,99,5.7C99.5,5.5,100.1,5.3,100.8,5.3z M106.8,5.3c0.6,0,1,0.1,1.4,0.2c0.3,0.1,0.6,0.3,0.8,0.6
		c0.2,0.3,0.4,0.6,0.5,1s0.1,0.9,0.1,1.6v5.4c0,0.6,0.1,0.9,0.3,1.1s0.5,0.3,1,0.3V16c-0.3,0-0.6,0-1.1-0.1c-0.5,0-1,0-1.5,0
		s-1,0-1.4,0c-0.5,0-0.8,0-1.1,0.1v-0.4c0.4,0,0.6-0.1,0.8-0.3c0.1-0.2,0.2-0.6,0.2-1.1V7.9c0-0.3,0-0.6-0.1-0.9
		c-0.1-0.2-0.2-0.4-0.3-0.6c-0.2-0.1-0.4-0.2-0.8-0.2c-0.5,0-1,0.2-1.4,0.7s-0.6,1-0.6,1.7l-0.1-1.2c0.4-0.8,0.8-1.3,1.4-1.6
		C105.5,5.5,106.1,5.3,106.8,5.3z"/>
	<path class="st2" d="M115.5,0.3v15.3c-0.3-0.1-0.7-0.1-1,0s-0.7,0.1-1,0.3c-0.3,0.1-0.5,0.3-0.7,0.5l-0.3-0.2
		c0.1-0.2,0.1-0.4,0.1-0.6c0-0.2,0-0.4,0-0.6V2.7c0-0.6-0.1-1-0.3-1.3c-0.2-0.3-0.5-0.4-1-0.4V0.5c0.4,0,0.8,0.1,1.2,0.1
		c0.5,0,1.1,0,1.6-0.1C114.6,0.4,115.1,0.4,115.5,0.3z M118.6,5.3c1,0,1.9,0.4,2.6,1.3s1,2.2,1,3.9c0,1.4-0.2,2.5-0.6,3.4
		c-0.4,0.8-1,1.5-1.7,1.8c-0.7,0.4-1.5,0.6-2.3,0.6c-0.5,0-1.1-0.1-1.5-0.3s-0.9-0.5-1.2-0.9l0.3-0.1c0.2,0.3,0.5,0.5,0.9,0.7
		c0.3,0.1,0.7,0.2,1,0.2c0.7,0,1.3-0.4,1.7-1.2s0.5-2.1,0.5-3.8c0-1.2-0.1-2.1-0.2-2.7c-0.1-0.7-0.3-1.2-0.6-1.4
		c-0.3-0.3-0.6-0.4-1-0.4c-0.5,0-0.9,0.2-1.3,0.6s-0.6,0.9-0.7,1.6l-0.1-0.7c0.2-0.8,0.7-1.3,1.2-1.7C117.2,5.5,117.8,5.3,118.6,5.3
		z"/>
	<path class="st2" d="M127.4,0.2v13.9c0,0.6,0.1,0.9,0.3,1.1c0.2,0.2,0.5,0.3,1,0.3V16c-0.3,0-0.6,0-1.1-0.1c-0.5,0-1,0-1.5,0
		s-1.1,0-1.6,0s-0.9,0-1.2,0.1v-0.4c0.5,0,0.8-0.1,1-0.3s0.3-0.6,0.3-1.1V2.7c0-0.6-0.1-1-0.3-1.3c-0.2-0.3-0.5-0.4-1-0.4V0.5
		c0.4,0,0.8,0.1,1.2,0.1c0.6,0,1.1,0,1.6-0.1C126.5,0.4,127,0.3,127.4,0.2z"/>
	<path class="st2" d="M134.5,5.3c1.2,0,2.1,0.3,2.8,1s1,1.8,1,3.4h-6.6V9.3h4.1c0-0.7,0-1.3-0.1-1.8c-0.1-0.6-0.2-1-0.4-1.3
		s-0.5-0.5-0.8-0.5c-0.5,0-0.9,0.3-1.2,0.9s-0.5,1.6-0.6,2.9l0.1,0.1c0,0.2,0,0.3,0,0.5s0,0.4,0,0.5c0,0.9,0.1,1.7,0.4,2.3
		s0.6,1,1,1.3s0.8,0.4,1.2,0.4s0.8-0.1,1.3-0.3s0.9-0.6,1.3-1.3l0.4,0.1c-0.2,0.5-0.4,1-0.8,1.5c-0.3,0.5-0.8,0.9-1.3,1.2
		c-0.5,0.3-1.2,0.5-1.9,0.5c-0.9,0-1.7-0.2-2.4-0.6s-1.2-1-1.6-1.8c-0.4-0.8-0.6-1.8-0.6-3s0.2-2.3,0.6-3.1c0.4-0.8,1-1.5,1.8-1.9
		C132.7,5.5,133.6,5.3,134.5,5.3z"/>
</g>
</svg>
