<?xml version="1.0" encoding="utf-8"?>
<!-- Generator: Adobe Illustrator 24.0.2, SVG Export Plug-In . SVG Version: 6.00 Build 0)  -->
<svg version="1.1" id="Layer_1" xmlns="http://www.w3.org/2000/svg" xmlns:xlink="http://www.w3.org/1999/xlink" x="0px" y="0px"
	 viewBox="0 0 180.41 27.59" style="enable-background:new 0 0 180.41 27.59;" xml:space="preserve">
<style type="text/css">
	.st0{enable-background:new    ;}
	.st1{fill:#FFFFFF;}
	.st2{fill:#FDB73E;}
</style>
<title>logo</title>
<g class="st0">
	<path class="st1" d="M12.78,6.62c-0.11,0.54-0.11,1.09-0.11,1.63s0,0.87,0,1.2s0,0.65,0,0.98c0,0.33,0,0.54,0,0.76h-0.54
		c0-0.98-0.11-1.74-0.33-2.28s-0.43-0.98-0.87-1.3C10.5,7.38,9.84,7.17,8.86,7.17h-1.2v12.51c0,0.54,0.11,0.98,0.22,1.3
		s0.33,0.43,0.65,0.54c0.33,0.11,0.76,0.22,1.41,0.22v0.43c-0.33,0-0.87,0-1.41-0.11c-0.54,0-1.2,0-1.74,0c-0.65,0-1.3,0-1.85,0
		s-1.09,0-1.41,0.11v-0.43c0.65,0,1.09-0.11,1.41-0.22s0.54-0.33,0.65-0.54c0.11-0.22,0.22-0.76,0.22-1.3V7.17h-1.4
		c-0.87,0-1.63,0.11-2.07,0.43C2.01,7.82,1.69,8.25,1.47,8.9c-0.22,0.54-0.33,1.3-0.43,2.39H0.6c0-0.22,0-0.54,0.11-0.76
		c0-0.33,0-0.65,0-0.98c0-0.33,0-0.65,0-1.2c0-0.54-0.11-1.09-0.11-1.63c0.65,0,1.3,0,1.96,0c0.76,0,1.41,0,2.17,0s1.41,0,1.96,0
		s1.3,0,1.96,0c0.76,0,1.41,0,2.17,0S12.24,6.73,12.78,6.62z"/>
	<path class="st1" d="M17.35,4.99v8.16c0.33-0.98,0.87-1.63,1.63-2.07s1.41-0.54,2.17-0.54c0.54,0,0.98,0.11,1.41,0.22
		c0.33,0.11,0.65,0.33,0.98,0.65c0.33,0.33,0.43,0.65,0.54,1.09c0.11,0.43,0.22,0.98,0.22,1.74v5.87c0,0.65,0.11,0.98,0.43,1.2
		s0.65,0.33,1.3,0.33v0.54c-0.22,0-0.65,0-1.09-0.11c-0.54,0-0.98,0-1.52,0s-0.98,0-1.41,0s-0.76,0-1.09,0.11v-0.43
		c0.54,0,0.87-0.11,1.09-0.33s0.33-0.65,0.33-1.2V13.8c0-0.43,0-0.87-0.11-1.2s-0.22-0.65-0.54-0.87c-0.33-0.33-0.76-0.43-1.3-0.43
		c-0.87,0-1.63,0.33-2.17,1.09s-0.87,1.74-0.87,2.83v4.89c0,0.65,0.11,0.98,0.33,1.2s0.54,0.33,1.09,0.33v0.54
		c-0.22,0-0.54,0-1.09-0.11c-0.43,0-0.98,0-1.41,0s-0.98,0-1.52,0c-0.54,0-0.87,0-1.09,0.11v-0.43c0.54,0,0.98-0.11,1.3-0.33
		c0.33-0.22,0.43-0.65,0.43-1.2V7.71c0-0.65-0.11-1.09-0.33-1.41c-0.22-0.33-0.65-0.43-1.3-0.43V5.32c0.43,0,0.87,0.11,1.3,0.11
		s0.87,0,1.2-0.11C16.59,5.21,17.02,5.1,17.35,4.99z"/>
	<path class="st1" d="M32.14,10.65c0.98,0,1.74,0.22,2.5,0.65s1.3,1.09,1.74,1.96s0.65,2.07,0.65,3.37c0,1.41-0.22,2.5-0.65,3.37
		s-1.09,1.52-1.74,1.96c-0.76,0.43-1.63,0.65-2.5,0.65c-0.87,0-1.74-0.22-2.5-0.65s-1.3-1.09-1.85-1.96
		c-0.43-0.87-0.65-1.96-0.65-3.37s0.22-2.5,0.65-3.37s1.09-1.52,1.85-1.96C30.4,10.76,31.27,10.65,32.14,10.65z M32.14,11.08
		c-0.87,0-1.52,0.43-2.07,1.3c-0.54,0.87-0.76,2.28-0.76,4.24s0.22,3.37,0.76,4.24s1.2,1.3,2.07,1.3s1.52-0.43,2.07-1.3
		s0.76-2.28,0.76-4.24s-0.22-3.37-0.76-4.24C33.66,11.52,33.01,11.08,32.14,11.08z"/>
	<path class="st1" d="M46.06,10.65c0.54,0,0.98,0.11,1.3,0.22c0.33,0.11,0.65,0.33,0.98,0.65c0.33,0.33,0.43,0.65,0.54,1.09
		s0.11,1.09,0.11,1.74v5.87c0,0.65,0.11,0.98,0.43,1.2c0.33,0.22,0.65,0.33,1.3,0.33v0.43c-0.22,0-0.65,0-1.09-0.11
		c-0.54,0-0.98,0-1.52,0s-0.98,0-1.41,0s-0.76,0-1.09,0.11v-0.43c0.54,0,0.87-0.11,1.09-0.33s0.33-0.65,0.33-1.2V13.8
		c0-0.43,0-0.87-0.11-1.2s-0.22-0.65-0.43-0.87c-0.22-0.22-0.65-0.33-1.09-0.33c-0.54,0-1.09,0.22-1.52,0.54
		c-0.43,0.33-0.76,0.87-1.09,1.41c-0.22,0.65-0.43,1.3-0.43,2.07v4.89c0,0.65,0.11,0.98,0.33,1.2c0.22,0.22,0.54,0.33,1.09,0.33
		v0.33c-0.22,0-0.54,0-1.09-0.11c-0.43,0-0.98,0-1.41,0s-0.98,0-1.52,0s-0.87,0-1.09,0.11v-0.43c0.54,0,0.98-0.11,1.3-0.33
		c0.33-0.22,0.43-0.65,0.43-1.2v-6.96c0-0.65-0.11-1.2-0.33-1.41c-0.22-0.33-0.65-0.43-1.3-0.43v-0.54c0.43,0,0.87,0.11,1.3,0.11
		s0.87,0,1.2-0.11c0.43,0,0.76-0.11,1.09-0.22v2.61c0.33-0.98,0.87-1.63,1.52-2.07C44.64,10.76,45.3,10.65,46.06,10.65z
		 M52.58,10.65c0.54,0,0.98,0.11,1.3,0.22c0.33,0.11,0.65,0.33,0.98,0.65c0.33,0.33,0.43,0.65,0.54,1.09s0.11,1.09,0.11,1.74v5.87
		c0,0.65,0.11,0.98,0.43,1.2c0.22,0.22,0.65,0.33,1.3,0.33v0.43c-0.22,0-0.65,0-1.09-0.11c-0.54,0-0.98,0-1.52,0
		c-0.43,0-0.98,0-1.41,0s-0.76,0-1.09,0.11v-0.43c0.54,0,0.87-0.11,1.09-0.33s0.33-0.65,0.33-1.2V13.8c0-0.43,0-0.87-0.11-1.2
		s-0.22-0.65-0.43-0.87c-0.22-0.22-0.65-0.33-1.09-0.33c-0.87,0-1.52,0.33-2.07,1.09s-0.87,1.74-0.87,2.83l-0.11-2.07
		c0.43-0.98,0.98-1.74,1.63-2.07C51.17,10.86,51.93,10.65,52.58,10.65z"/>
	<path class="st1" d="M61.17,22.28c-0.98,0-1.63-0.22-2.07-0.76c-0.43-0.43-0.65-1.09-0.65-1.85c0-0.65,0.11-1.09,0.43-1.52
		c0.33-0.43,0.65-0.76,1.2-0.98c0.43-0.22,0.98-0.43,1.52-0.65s0.98-0.33,1.52-0.54c0.43-0.22,0.87-0.33,1.2-0.54
		c0.33-0.22,0.43-0.54,0.43-0.87v-1.3c0-0.65-0.11-1.09-0.33-1.41c-0.22-0.33-0.43-0.54-0.76-0.65c-0.33-0.11-0.65-0.22-0.98-0.22
		s-0.76,0-1.2,0.11c-0.43,0.11-0.76,0.33-0.98,0.65c0.33,0.11,0.54,0.22,0.76,0.43c0.22,0.22,0.33,0.54,0.33,0.87
		s-0.11,0.65-0.33,0.87s-0.54,0.33-0.87,0.33c-0.43,0-0.76-0.11-0.98-0.43c-0.22-0.22-0.33-0.54-0.33-0.87s0.11-0.65,0.33-0.87
		s0.43-0.43,0.76-0.65c0.33-0.22,0.76-0.43,1.3-0.65c0.54-0.22,1.09-0.22,1.85-0.22c0.65,0,1.09,0.11,1.52,0.22
		c0.43,0.11,0.76,0.33,1.09,0.65c0.33,0.33,0.65,0.76,0.76,1.3s0.22,1.09,0.22,1.85v6.09c0,0.33,0,0.65,0.11,0.76
		c0.11,0.22,0.33,0.22,0.54,0.22c0.22,0,0.43,0,0.54-0.11s0.33-0.22,0.43-0.33l0.22,0.33c-0.33,0.22-0.65,0.43-0.87,0.54
		c-0.33,0.11-0.65,0.22-1.09,0.22c-0.76,0-1.3-0.22-1.52-0.54c-0.22-0.43-0.33-0.87-0.33-1.3c-0.43,0.76-0.98,1.3-1.63,1.52
		C62.48,22.17,61.83,22.28,61.17,22.28z M62.15,21.41c0.43,0,0.87-0.11,1.3-0.43c0.43-0.22,0.87-0.65,1.2-1.3v-4.13
		c-0.22,0.33-0.54,0.54-0.98,0.76c-0.43,0.22-0.98,0.43-1.41,0.65s-0.87,0.54-1.3,0.87s-0.54,0.98-0.54,1.63s0.22,1.2,0.54,1.52
		C61.17,21.3,61.61,21.41,62.15,21.41z"/>
	<path class="st1" d="M73.03,10.65c0.54,0,1.09,0.11,1.52,0.33s0.76,0.33,0.87,0.54c0.43,0.43,0.76,0.11,0.87-0.76h0.54
		c0,0.43,0,0.87-0.11,1.41c0,0.54,0,1.3,0,2.28h-0.54c-0.11-0.54-0.22-1.09-0.43-1.52c-0.22-0.54-0.54-0.98-0.98-1.3
		c-0.43-0.33-0.98-0.54-1.63-0.54c-0.54,0-0.98,0.11-1.3,0.43c-0.33,0.33-0.54,0.65-0.54,1.3c0,0.43,0.11,0.76,0.43,1.09
		c0.22,0.33,0.65,0.65,0.98,0.87c0.43,0.22,0.87,0.54,1.41,0.87c0.87,0.54,1.52,1.09,2.17,1.63c0.54,0.54,0.87,1.3,0.87,2.17
		c0,0.65-0.22,1.2-0.54,1.63c-0.33,0.43-0.76,0.76-1.41,0.98c-0.54,0.22-1.2,0.33-1.85,0.33c-0.33,0-0.65,0-0.87-0.11
		s-0.54-0.11-0.87-0.22c-0.11-0.11-0.33-0.11-0.43-0.22c-0.11-0.11-0.33-0.22-0.43-0.33c-0.11-0.11-0.33-0.11-0.43,0
		c-0.11,0.11-0.22,0.33-0.22,0.76h-0.54c0-0.43,0-1.09,0.11-1.74s0-1.52,0-2.72h0.54c0.11,0.87,0.22,1.52,0.43,2.17
		c0.22,0.65,0.43,1.09,0.87,1.41c0.43,0.33,0.98,0.54,1.74,0.54c0.43,0,0.87-0.11,1.3-0.43c0.43-0.33,0.65-0.87,0.65-1.63
		c0-0.65-0.22-1.2-0.65-1.52c-0.43-0.43-1.09-0.87-1.74-1.3c-0.54-0.33-0.98-0.65-1.52-0.98c-0.43-0.33-0.87-0.76-1.09-1.09
		c-0.22-0.33-0.43-0.98-0.43-1.52c0-0.65,0.11-1.2,0.43-1.63s0.65-0.76,1.2-0.87S72.48,10.65,73.03,10.65z"/>
</g>
<g class="st0">
	<path class="st2" d="M85.97,6.62v0.43c-0.43,0-0.87,0.11-1.09,0.22c-0.22,0.11-0.33,0.22-0.43,0.54c-0.11,0.33-0.11,0.65-0.11,1.2
		v10.87c0,0.54,0,0.87,0.11,1.2c0.11,0.22,0.22,0.43,0.43,0.54c0.22,0.11,0.54,0.11,1.09,0.22v0.33c-0.43,0-0.87,0-1.52-0.11
		c-0.54,0-1.2,0-1.85,0s-1.41,0-1.96,0c-0.65,0-1.09,0-1.52,0.11v-0.43c0.43,0,0.87-0.11,1.09-0.22s0.43-0.22,0.43-0.54
		c0.11-0.22,0.11-0.65,0.11-1.2V8.91c0-0.54,0-0.98-0.11-1.2s-0.22-0.43-0.43-0.54c-0.22-0.11-0.54-0.11-1.09-0.22V6.62
		c0.33,0,0.87,0,1.52,0c0.65,0,1.3,0,1.96,0c0.65,0,1.2,0,1.85,0C85.1,6.62,85.53,6.62,85.97,6.62z M93.47,6.62v0.43
		c-0.43,0.11-0.98,0.33-1.52,0.65c-0.54,0.32-1.09,0.76-1.63,1.52l-4.13,4.89l1.3-1.85l5.22,8.16c0.22,0.33,0.43,0.65,0.65,0.76
		c0.22,0.22,0.54,0.33,0.87,0.54v0.43c-0.54,0-1.09,0-1.74-0.11c-0.65,0-1.2,0-1.74,0c-0.33,0-0.65,0-1.09,0
		c-0.43,0-0.98,0-1.63,0.11v-0.43c0.54,0,0.98-0.11,1.09-0.22c0.11-0.11,0.11-0.43-0.22-0.76l-3.04-5.11
		c-0.22-0.33-0.43-0.54-0.54-0.76s-0.33-0.33-0.43-0.33c-0.11-0.11-0.33-0.11-0.65-0.11v-0.54c0.65,0,1.2-0.22,1.74-0.54
		c0.54-0.33,1.09-0.87,1.63-1.52l1.3-1.52c0.54-0.65,0.87-1.2,0.98-1.74s0-0.87-0.33-1.09c-0.33-0.22-0.76-0.43-1.3-0.43V6.62
		c0.54,0,1.09,0,1.52,0s1.09,0,1.74,0C92.38,6.62,93.04,6.62,93.47,6.62z"/>
	<path class="st2" d="M99.13,10.65v9.57c0,0.65,0.11,0.98,0.33,1.2c0.22,0.22,0.54,0.33,1.09,0.33v0.43c-0.22,0-0.65,0-1.2-0.11
		c-0.54,0-1.09,0-1.63,0s-1.2,0-1.74,0s-0.98,0-1.3,0.11v-0.43c0.54,0,0.87-0.11,1.09-0.33c0.22-0.22,0.33-0.65,0.33-1.2v-6.96
		c0-0.65-0.11-1.09-0.33-1.41c-0.22-0.33-0.65-0.54-1.2-0.54v-0.43c0.43,0,0.87,0.11,1.3,0.11c0.65,0,1.2,0,1.74-0.11
		C98.15,10.76,98.69,10.76,99.13,10.65z M97.39,5.21c0.65,0,1.09,0.11,1.41,0.43c0.33,0.33,0.54,0.76,0.54,1.2
		c0,0.54-0.22,0.98-0.54,1.2c-0.33,0.33-0.87,0.43-1.41,0.43s-1.09-0.11-1.41-0.43c-0.33-0.33-0.54-0.76-0.54-1.2
		c0-0.54,0.22-0.98,0.54-1.2C96.3,5.32,96.84,5.21,97.39,5.21z"/>
	<path class="st2" d="M109.46,10.54c0.65,0,1.09,0.11,1.52,0.22c0.33,0.11,0.65,0.33,0.87,0.65s0.43,0.65,0.54,1.09
		c0.11,0.43,0.11,0.98,0.11,1.74v5.87c0,0.65,0.11,0.98,0.33,1.2c0.22,0.22,0.54,0.33,0.98,0.33v0.54c-0.22,0-0.65,0-1.2-0.11
		c-0.54,0-1.09,0-1.52,0c-0.54,0-1.09,0-1.52,0c-0.54,0-0.87,0-1.2,0.11v-0.43c0.43,0,0.65-0.11,0.87-0.33s0.22-0.65,0.22-1.2v-6.85
		c0-0.33,0-0.65-0.11-0.98c-0.11-0.22-0.22-0.43-0.33-0.65c-0.22-0.11-0.43-0.22-0.76-0.22s-0.76,0.11-1.09,0.33
		c-0.33,0.22-0.54,0.54-0.76,0.87c-0.22,0.43-0.33,0.87-0.33,1.3v6.09c0,0.65,0.11,0.98,0.22,1.2c0.11,0.22,0.43,0.33,0.76,0.33
		v0.54c-0.22,0-0.54,0-1.09-0.11c-0.43,0-0.98,0-1.52,0s-1.09,0-1.74,0c-0.54,0-0.98,0-1.3,0.11v-0.43c0.54,0,0.87-0.11,1.09-0.33
		s0.33-0.65,0.33-1.2v-6.96c0-0.65-0.11-1.09-0.33-1.41c-0.11-0.33-0.43-0.54-0.98-0.54v-0.43c0.43,0,0.87,0.11,1.3,0.11
		c0.65,0,1.2,0,1.74-0.11c0.54,0,0.98-0.11,1.52-0.22v1.96c0.33-0.76,0.76-1.3,1.41-1.63C108.04,10.76,108.7,10.54,109.46,10.54z
		 M115.98,10.54c0.65,0,1.09,0.11,1.52,0.22c0.33,0.11,0.65,0.33,0.87,0.65c0.22,0.33,0.43,0.65,0.54,1.09
		c0.11,0.43,0.11,0.98,0.11,1.74v5.87c0,0.65,0.11,0.98,0.33,1.2c0.22,0.22,0.54,0.33,1.09,0.33v0.54c-0.33,0-0.65,0-1.2-0.11
		c-0.54,0-1.09,0-1.63,0s-1.09,0-1.52,0c-0.54,0-0.87,0-1.2,0.11v-0.43c0.43,0,0.65-0.11,0.87-0.33c0.11-0.22,0.22-0.65,0.22-1.2
		v-6.85c0-0.33,0-0.65-0.11-0.98c-0.11-0.22-0.22-0.43-0.33-0.65c-0.22-0.11-0.43-0.22-0.87-0.22c-0.54,0-1.09,0.22-1.52,0.76
		s-0.65,1.09-0.65,1.85l-0.11-1.3c0.43-0.87,0.87-1.41,1.52-1.74C114.57,10.76,115.22,10.54,115.98,10.54z"/>
	<path class="st2" d="M125.44,5.1v16.64c-0.33-0.11-0.76-0.11-1.09,0c-0.33,0.11-0.76,0.11-1.09,0.33
		c-0.33,0.11-0.54,0.33-0.76,0.54l-0.33-0.22c0.11-0.22,0.11-0.43,0.11-0.65s0-0.43,0-0.65V7.71c0-0.65-0.11-1.09-0.33-1.41
		c-0.22-0.33-0.54-0.43-1.09-0.43V5.32c0.43,0,0.87,0.11,1.3,0.11c0.54,0,1.2,0,1.74-0.11C124.46,5.21,125.01,5.21,125.44,5.1z
		 M128.81,10.54c1.09,0,2.07,0.43,2.83,1.41s1.09,2.39,1.09,4.24c0,1.52-0.22,2.72-0.65,3.7c-0.43,0.87-1.09,1.63-1.85,1.96
		c-0.76,0.43-1.63,0.65-2.5,0.65c-0.54,0-1.2-0.11-1.63-0.33s-0.98-0.54-1.3-0.98l0.33-0.11c0.22,0.33,0.54,0.54,0.98,0.76
		c0.33,0.11,0.76,0.22,1.09,0.22c0.76,0,1.41-0.43,1.85-1.3s0.54-2.28,0.54-4.13c0-1.3-0.11-2.28-0.22-2.94
		c-0.11-0.76-0.33-1.3-0.65-1.52c-0.33-0.33-0.65-0.43-1.09-0.43c-0.54,0-0.98,0.22-1.41,0.65c-0.43,0.43-0.65,0.98-0.76,1.74
		l-0.11-0.76c0.22-0.87,0.76-1.41,1.3-1.85C127.29,10.76,127.94,10.54,128.81,10.54z"/>
	<path class="st2" d="M138.38,4.99v15.12c0,0.65,0.11,0.98,0.33,1.2c0.22,0.22,0.54,0.33,1.09,0.33v0.54c-0.33,0-0.65,0-1.2-0.11
		c-0.54,0-1.09,0-1.63,0c-0.54,0-1.2,0-1.74,0c-0.54,0-0.98,0-1.3,0.11v-0.43c0.54,0,0.87-0.11,1.09-0.33s0.33-0.65,0.33-1.2V7.71
		c0-0.65-0.11-1.09-0.33-1.41c-0.22-0.33-0.54-0.43-1.09-0.43V5.32c0.43,0,0.87,0.11,1.3,0.11c0.65,0,1.2,0,1.74-0.11
		C137.4,5.21,137.95,5.1,138.38,4.99z"/>
	<path class="st2" d="M146.1,10.54c1.3,0,2.28,0.33,3.04,1.09s1.09,1.96,1.09,3.7h-7.18V14.9h4.46c0-0.76,0-1.41-0.11-1.96
		c-0.11-0.65-0.22-1.09-0.43-1.41c-0.22-0.33-0.54-0.54-0.87-0.54c-0.54,0-0.98,0.33-1.3,0.98s-0.54,1.74-0.65,3.15l0.11,0.11
		c0,0.22,0,0.33,0,0.54s0,0.43,0,0.54c0,0.98,0.11,1.85,0.43,2.5c0.33,0.65,0.65,1.09,1.09,1.41c0.43,0.33,0.87,0.43,1.3,0.43
		s0.87-0.11,1.41-0.33c0.54-0.22,0.98-0.65,1.41-1.41l0.43,0.11c-0.22,0.54-0.43,1.09-0.87,1.63c-0.33,0.54-0.87,0.98-1.41,1.3
		c-0.54,0.33-1.3,0.54-2.07,0.54c-0.98,0-1.85-0.22-2.61-0.65s-1.3-1.09-1.74-1.96c-0.43-0.87-0.65-1.96-0.65-3.26
		s0.22-2.5,0.65-3.37s1.09-1.63,1.96-2.07C144.15,10.76,145.13,10.54,146.1,10.54z"/>
</g>
</svg>
