<?xml version="1.0" encoding="utf-8"?>
<!-- Generator: Adobe Illustrator 24.0.2, SVG Export Plug-In . SVG Version: 6.00 Build 0)  -->
<svg version="1.1" id="Layer_1" xmlns="http://www.w3.org/2000/svg" xmlns:xlink="http://www.w3.org/1999/xlink" x="0px" y="0px"
	 viewBox="0 0 54 54" style="enable-background:new 0 0 54 54;" xml:space="preserve">
<style type="text/css">
	.st0{fill:none;stroke:#2F2F41;stroke-width:5;stroke-miterlimit:10;}
	.st1{fill:#2F2F41;}
	.st2{fill:#FDB73E;}
</style>
<title>logo-mobile</title>
<rect x="0.3" y="0.3" class="st0" width="53.3" height="53.3"/>
<path class="st1" d="M23.8,17.3c-0.1,0.7-0.1,1.5-0.1,2.2s0,1.2,0,1.6s0,0.9,0,1.3s0,0.7,0,1H23c0-1.3-0.1-2.4-0.4-3.1
	S22,19,21.4,18.5c-0.6-0.3-1.5-0.6-2.8-0.6H17v17c0,0.7,0.1,1.3,0.3,1.8c0.1,0.4,0.4,0.6,0.9,0.7c0.4,0.1,1,0.3,1.9,0.3v0.6
	c-0.4,0-1.2,0-1.9-0.1c-0.7,0-1.6,0-2.4,0c-0.9,0-1.8,0-2.5,0s-1.5,0-1.9,0.1v-0.6c0.9,0,1.5-0.1,1.9-0.3c0.4-0.1,0.7-0.4,0.9-0.7
	c0.1-0.3,0.3-1,0.3-1.8V18h-1.9c-1.2,0-2.2,0.1-2.8,0.6c-0.4,0.3-0.9,0.9-1.2,1.8c-0.3,0.7-0.4,1.8-0.6,3.3H7.2c0-0.3,0-0.7,0.1-1
	c0-0.4,0-0.9,0-1.3s0-0.9,0-1.6s-0.1-1.5-0.1-2.2c0.9,0,1.8,0,2.7,0c1,0,1.9,0,3,0s1.9,0,2.7,0s1.8,0,2.7,0c1,0,1.9,0,3,0
	C22.2,17.4,23.1,17.4,23.8,17.3z"/>
<path class="st2" d="M36.2,17.3v0.6c-0.6,0-1.2,0.1-1.5,0.3c-0.3,0.1-0.5,0.3-0.6,0.7C34,19.4,34,19.8,34,20.6v14.8
	c0,0.7,0,1.2,0.1,1.6c0.1,0.3,0.3,0.6,0.6,0.7c0.3,0.1,0.7,0.1,1.5,0.3v0.4c-0.6,0-1.2,0-2.1-0.1c-0.7,0-1.6,0-2.5,0
	c-0.9,0-1.9,0-2.7,0c-0.9,0-1.5,0-2.1,0.1v-0.6c0.6,0,1.2-0.1,1.5-0.3s0.6-0.3,0.6-0.7c0.1-0.3,0.1-0.9,0.1-1.6V20.4
	c0-0.7,0-1.3-0.1-1.6s-0.3-0.6-0.6-0.7C28,18,27.6,18,26.8,17.8v-0.4c0.4,0,1.2,0,2.1,0s1.8,0,2.7,0c0.9,0,1.6,0,2.5,0
	C35.1,17.3,35.6,17.3,36.2,17.3z M46.4,17.3v0.6c-0.6,0.1-1.3,0.4-2.1,0.9c-0.7,0.4-1.5,1-2.2,2.1l-5.6,6.7l1.8-2.5l7.1,11.1
	c0.3,0.4,0.6,0.9,0.9,1c0.3,0.3,0.7,0.4,1.2,0.7v0.6c-0.7,0-1.5,0-2.4-0.1c-0.9,0-1.6,0-2.4,0c-0.4,0-0.9,0-1.5,0s-1.3,0-2.2,0.1
	v-0.6c0.7,0,1.3-0.1,1.5-0.3s0.1-0.6-0.3-1l-4.1-7c-0.3-0.4-0.6-0.7-0.7-1c-0.1-0.3-0.4-0.4-0.6-0.4c-0.2-0.2-0.5-0.2-1-0.2v-0.7
	c0.9,0,1.6-0.3,2.4-0.7s1.5-1.2,2.2-2.1l1.8-2.1c0.7-0.9,1.2-1.6,1.3-2.4c0.1-0.7,0-1.2-0.4-1.5s-1-0.6-1.8-0.6v-0.6
	c0.7,0,1.5,0,2.1,0s1.5,0,2.4,0C45,17.3,45.8,17.3,46.4,17.3z"/>
</svg>
