<?xml version="1.0" encoding="utf-8"?>
<!-- Generator: Adobe Illustrator 24.0.2, SVG Export Plug-In . SVG Version: 6.00 Build 0)  -->
<svg version="1.1" id="Layer_1" xmlns="http://www.w3.org/2000/svg" xmlns:xlink="http://www.w3.org/1999/xlink" x="0px" y="0px"
	 viewBox="0 0 32 32" style="enable-background:new 0 0 32 32;" xml:space="preserve">
<style type="text/css">
	.st0{fill:#FDB73E;}
	.st1{enable-background:new    ;}
	.st2{fill:#2F2F41;}
	.st3{fill:#FFFFFF;}
</style>
<title>Group</title>
<path class="st0" d="M25.8,32H6.2C2.8,32,0,29.2,0,25.8V6.2C0,2.8,2.8,0,6.2,0h19.6C29.2,0,32,2.8,32,6.2v19.6
	C32,29.2,29.2,32,25.8,32z"/>
<g class="st1">
	<path class="st2" d="M14.2,8.9c-0.1,0.5-0.1,1-0.1,1.5c0,0.5,0,0.8,0,1.1c0,0.3,0,0.6,0,0.9c0,0.3,0,0.5,0,0.7h-0.5
		c-0.1-0.9-0.2-1.7-0.4-2.2c-0.2-0.5-0.4-0.9-0.8-1.2c-0.4-0.2-1-0.4-1.9-0.4H9.4v11.3c0,0.5,0,0.9,0.2,1.2s0.3,0.4,0.6,0.5
		c0.3,0.1,0.7,0.2,1.3,0.2V23c-0.3,0-0.8,0-1.3,0c-0.5,0-1.1,0-1.6,0c-0.6,0-1.2,0-1.7,0c-0.5,0-1,0-1.3,0v-0.4c0.6,0,1-0.1,1.3-0.2
		c0.3-0.1,0.5-0.3,0.6-0.5s0.2-0.7,0.2-1.2V9.4H6.5C5.7,9.4,5,9.5,4.6,9.7c-0.4,0.2-0.7,0.6-0.9,1.2c-0.2,0.5-0.3,1.3-0.4,2.2H2.9
		c0-0.2,0-0.5,0.1-0.7c0-0.3,0-0.6,0-0.9c0-0.3,0-0.6,0-1.1c0-0.5-0.1-1-0.1-1.5c0.6,0,1.2,0,1.8,0s1.3,0,2,0C7.4,9,8,9,8.5,9
		c0.5,0,1.2,0,1.8,0s1.3,0,2,0S13.6,8.9,14.2,8.9z"/>
</g>
<g class="st1">
	<path class="st3" d="M21.9,8.9v0.4c-0.4,0-0.8,0.1-1,0.1s-0.4,0.2-0.4,0.5c-0.1,0.2-0.1,0.6-0.1,1.1v9.8c0,0.5,0,0.8,0.1,1.1
		c0.1,0.2,0.2,0.4,0.4,0.5c0.2,0.1,0.5,0.1,1,0.2V23c-0.4,0-0.8,0-1.4,0c-0.5,0-1.1,0-1.7,0c-0.6,0-1.2,0-1.8,0c-0.6,0-1,0-1.4,0
		v-0.4c0.4,0,0.8-0.1,1-0.2c0.2-0.1,0.4-0.2,0.4-0.5s0.1-0.6,0.1-1.1V11c0-0.5,0-0.8-0.1-1.1s-0.2-0.4-0.4-0.5
		c-0.2-0.1-0.5-0.1-1-0.1V8.9c0.3,0,0.8,0,1.4,0c0.6,0,1.2,0,1.8,0c0.6,0,1.1,0,1.7,0C21.1,8.9,21.6,8.9,21.9,8.9z M28.9,8.9v0.4
		c-0.4,0.1-0.9,0.3-1.4,0.6c-0.5,0.3-1,0.7-1.5,1.3l-3.8,4.4l1.2-1.6l4.8,7.4c0.2,0.3,0.4,0.5,0.6,0.7c0.2,0.2,0.5,0.3,0.8,0.5V23
		c-0.5,0-1,0-1.6,0c-0.6,0-1.1,0-1.6,0c-0.3,0-0.6,0-1,0c-0.4,0-0.9,0-1.5,0v-0.4c0.5,0,0.9-0.1,1-0.2c0.1-0.1,0.1-0.3-0.2-0.7
		L21.8,17c-0.2-0.3-0.4-0.5-0.5-0.7c-0.1-0.2-0.3-0.3-0.4-0.3c-0.1-0.1-0.3-0.1-0.6-0.1v-0.4c0.6,0,1.1-0.2,1.6-0.5
		c0.5-0.3,1-0.8,1.5-1.4l1.2-1.4c0.5-0.6,0.8-1.1,0.9-1.5c0.1-0.4,0-0.8-0.3-1C25,9.4,24.6,9.3,24,9.3V8.9c0.5,0,1,0,1.4,0
		s1,0,1.6,0C27.8,9,28.4,9,28.9,8.9z"/>
</g>
</svg>
